<svg xmlns="http://www.w3.org/2000/svg" viewBox="0 0 512 512" style="height: 512px; width: 512px;">
    <defs>
        <filter id="shadow-1" height="300%" width="300%" x="-100%" y="-100%">
            <feFlood flood-color="rgba(230, 148, 5, 1)" result="flood"></feFlood>
            <feComposite in="flood" in2="SourceGraphic" operator="atop" result="composite"></feComposite>
            <feGaussianBlur in="composite" stdDeviation="6" result="blur"></feGaussianBlur>
            <feOffset dx="0" dy="0" result="offset"></feOffset>
            <feComposite in="SourceGraphic" in2="offset" operator="over"></feComposite>
        </filter>
    </defs>
    <path d="M0 0h512v512H0z" fill="transparent" fill-opacity="0"></path>
    <g class="" transform="translate(4,1)" style="touch-action: none;">
        <path d="M256 28.5a112 112 0 0 0-112 112 112 112 0 0 0 24.4 69.8L256 58.49l87.5 151.71a112 112 0 0 0 24.5-69.7 112 112 0 0 0-112-112zm0 66.01l-39.8 68.99h79.6zm-50.2 86.99l-26.5 46H247v-46zm59.2 0v46h67.7l-26.5-46zm-96.1 64l-26.5 46h227.2l-26.5-46zm-36.9 64l-26.5 46H247v-46zm133 0v46h141.5l-26.5-46zm-169.93 64l-26.55 46H443.5l-26.6-46zm-36.93 64l-26.55 46H247v-46zm206.86 0v46h215.4l-26.6-46z"
              fill="#e89b16" fill-opacity="1" filter="url(#shadow-1)"></path>
    </g>
</svg>